<svg xmlns="http://www.w3.org/2000/svg" xmlns:xlink="http://www.w3.org/1999/xlink" width="1440" height="2160" viewBox="0 0 1440 2160"><path xmlns="http://www.w3.org/2000/svg" fill="#F6F4F6" transform="scale(1.40625 1.40625)" d="M141.797 82.0003C148.568 82.7094 154.102 81.7184 160.533 85.2246C168.67 89.6607 166.715 101.024 162.415 107.519L161.913 108.264C162.701 117.962 170.521 118.677 162.823 132.18C156.18 137.841 147.21 135.935 138.44 135.42C138.485 127.281 137.531 86.9477 139.444 82.8448L141.797 82.0003ZM142.428 131.674C148.469 131.698 155.727 132.773 159.907 128.852C167.856 105.055 151.17 113.998 142.547 110.827C142.703 117.776 142.663 124.728 142.428 131.674ZM142.723 107.339C147.361 107.191 155.726 107.424 159.282 104.669C166.356 86.9187 157.413 86.7898 142.81 86.6061C142.465 93.531 142.636 100.407 142.723 107.339Z"/></svg>